# xmcd
#
# Track frame offsets: 
#        150
#        13661
#        28692
#        43254
#        57553
#        70035
#        85336
#        98593
#        111498
#        122824
#        135798
#        147787
#        162832
#        175584
#        193045
#        207625
#        222285
#
# Disc length: 3187 seconds
#
# Revision: 0
# Processed by: cddbd v1.5.2PL0 Copyright (c) Steve Scherf et al.
# Submitted via: ExactAudioCopy v1.1
#
DISCID=f40c7111
DTITLE=Various Artist - NRJ Holiday 2018 - CD 3
DYEAR=2018
DGENRE=Top 40
TTITLE0=Sound Of Legend - Bella Ciao
TTITLE1=Maître Gims Avec Vianney - La Même
TTITLE2=Julian Perretta - On The Line
TTITLE3=Kendji Girac - Maria Maria
TTITLE4=El Profesor - Bella Ciao (Hugel Remix)
TTITLE5=Vitaa Avec Claudio Capéo - Un Peu De Rêve
TTITLE6=Jen Jis and Feder Feat. Bright Sparks - Keep Us Apart
TTITLE7=Ben'Do - Pareil
TTITLE8=Lost Frequencies Feat. James Blunt - Melody
TTITLE9=Sasha - Je Danse
TTITLE10=Basada Feat. Camden Cox - Good Vibes
TTITLE11=L'Algérino Feat. Kore - Va Bene
TTITLE12=Major Lazer Feat. Anitta and Pabllo Vittar - Sua Cara
TTITLE13=Post Malone - Better Now
TTITLE14=Tal - Mondial
TTITLE15=Inna and DJ Sem Feat. Matt Houston - La Roulette
TTITLE16=Amir - Les Rues De Ma Peine
EXTD=
EXTT0=
EXTT1=
EXTT2=
EXTT3=
EXTT4=
EXTT5=
EXTT6=
EXTT7=
EXTT8=
EXTT9=
EXTT10=
EXTT11=
EXTT12=
EXTT13=
EXTT14=
EXTT15=
EXTT16=
PLAYORDER=
